<?xml version="1.0" encoding="UTF-8"?>
<svg id="Layer_1" data-name="Layer 1" xmlns="http://www.w3.org/2000/svg" viewBox="0 0 1080 1080">
  <defs>
    <style>
      .cls-1 {
        fill: #fff;
      }
    </style>
  </defs>
  <path d="M348.76,723.23h77.77c-2.03,48.99-74.91,48.25-77.77,0Z"/>
  <path d="M428.14,694.88c-15.53,4.54-69.28,4.24-84.22-1.63-30.44-11.97-31.16-50.12-4.79-67.94,3.59-2.42,9.11-1.88,9.65-6.55l.12-267.19c5.41-30.93,45.83-41.36,67.33-19.81,4.01,4.02,9.64,13.9,10.34,19.63l-.07,267.37c.79,4.03,9.15,5.98,13.51,9.18,25.18,18.45,17.93,58.23-11.87,66.94Z"/>
  <path d="M501.05,601.73h77.76v128.79c0,2.78-7.98,16.13-10.54,18.63-17.27,16.88-47.96,13.14-61.45-6.58-1.16-1.69-5.77-10.96-5.77-12.05v-128.79Z"/>
  <path d="M585.29,571.76c-14.61,6.15-74.76,6.22-89.58.48-26.04-10.11-31.79-48.45-9.14-65.18,4.35-3.2,13.51-4.65,14.48-9.82l.71-148.33c3.94-15.45,18.73-27.88,34.62-28.71,18.11-.94,35.77,10.15,41.32,27.48,2.56,49.61.4,99.76,1.1,149.56.97,5.15,9.37,6.33,13.51,9.18,23.07,15.9,18.76,54.49-7.02,65.34Z"/>
  <path d="M653.33,496.43h77.76v234.09c0,2.75-7.98,16.17-10.54,18.62-17.61,16.92-47.62,13.09-61.45-6.57-.94-1.33-5.77-9.83-5.77-10.43v-235.71Z"/>
  <path d="M732.39,467.75c-14.23,4.42-64.94,4.54-79.42.69-29.36-7.79-38.27-44.74-15.87-65.2,5.08-4.64,10.93-5.89,16.02-9.9,2.25-22.23-6.41-45.55,11.67-62.85,5.79-5.53,15.87-9.87,23.87-10.29,18.37-.97,39.68,12.16,42.29,31.37,1.44,10.57-2.28,34.05.36,41.77.46,1.35,13.28,7.2,16.86,10.68,21.05,20.38,12.28,55.02-15.78,63.73Z"/>
  <g>
    <path class="cls-1" d="M578.81,601.73v128.79c0,2.78-7.98,16.13-10.54,18.63-17.27,16.88-47.96,13.14-61.45-6.58-1.16-1.69-5.77-10.96-5.77-12.05v-128.79h77.76Z"/>
    <path class="cls-1" d="M428.14,694.88c-15.53,4.54-69.28,4.24-84.22-1.63-30.44-11.97-31.16-50.12-4.79-67.94,3.59-2.42,9.11-1.88,9.65-6.55l.12-267.19c5.41-30.93,45.83-41.36,67.33-19.81,4.01,4.02,9.64,13.9,10.34,19.63l-.07,267.37c.79,4.03,9.15,5.98,13.51,9.18,25.18,18.45,17.93,58.23-11.87,66.94Z"/>
    <path class="cls-1" d="M426.53,723.23c-2.03,48.99-74.91,48.25-77.77,0h77.77Z"/>
    <path class="cls-1" d="M585.29,571.76c-14.61,6.15-74.76,6.22-89.58.48-26.04-10.11-31.79-48.45-9.14-65.18,4.35-3.2,13.51-4.65,14.48-9.82l.71-148.33c3.94-15.45,18.73-27.88,34.62-28.71,18.11-.94,35.77,10.15,41.32,27.48,2.56,49.61.4,99.76,1.1,149.56.97,5.15,9.37,6.33,13.51,9.18,23.07,15.9,18.76,54.49-7.02,65.34Z"/>
    <path class="cls-1" d="M732.39,467.75c-14.23,4.42-64.94,4.54-79.42.69-29.36-7.79-38.27-44.74-15.87-65.2,5.08-4.64,10.93-5.89,16.02-9.9,2.25-22.23-6.41-45.55,11.67-62.85,5.79-5.53,15.87-9.87,23.87-10.29,18.37-.97,39.68,12.16,42.29,31.37,1.44,10.57-2.28,34.05.36,41.77.46,1.35,13.28,7.2,16.86,10.68,21.05,20.38,12.28,55.02-15.78,63.73Z"/>
    <path class="cls-1" d="M731.09,496.43v234.09c0,2.75-7.98,16.17-10.54,18.62-17.61,16.92-47.62,13.09-61.45-6.57-.94-1.33-5.77-9.83-5.77-10.43v-235.71h77.76Z"/>
  </g>
</svg>