<?xml version="1.0" encoding="UTF-8"?>
<svg id="Layer_1" data-name="Layer 1" xmlns="http://www.w3.org/2000/svg" viewBox="0 0 1080 1080">
  <defs>
    <style>
      .cls-1 {
        fill: #fff;
      }
    </style>
  </defs>
  <rect x="204.57" y="204.57" width="670.87" height="670.87" rx="84.79" ry="84.79"/>
  <g>
    <path class="cls-1" d="M526.89,712.43c-62.76-5.38-167.86,27.38-182.02-59.02,4.79-72.81-6.18-153.42,0-225.31,3.33-38.74,36.25-58.49,71.94-60.76,16.64-1.06,71.56-2.17,84.94,2.51,18.45,6.46,14.78,21.48,18.6,36.45,20.44,80.19,138.29,6.93,186.73,65.64,6.52,7.91,11.56,18.22,13.84,28.25,2.28,9.99-.15,27.86,11.61,30.5,20.26,4.56,21.2-14.89,19.66-29.43-3.89-36.73-35.8-72.05-71.3-80.85-31.96-7.93-72.51.52-105.54-2.8-7.36-.74-15.21-3.31-20.22-8.91-8.59-9.59-5.51-21.52-8.9-33.2-7.29-25.07-30.36-37.24-54.91-38.95-71.02-4.93-167.72-3.51-176.93,88.56-7.21,72.09,5.03,155.06-.25,228.3,3.49,45.57,42.47,86.29,88.12,89.92,43.37,3.44,91.68-2.33,135.49-.49,1.89-.89,4.01-1.9,5.48-3.38,4.98-4.99,5.42-14.79,1.34-20.45-3.46-4.8-12.07-6.09-17.69-6.58Z"/>
    <path class="cls-1" d="M698.65,554.14c-22.03,3.2-70.04,53.25-87.78,70.82-7.94,7.86-24.08,21.86-29.6,30.29-6,9.15-13.36,51.27-13.35,62.9.03,21.83,17.97,27.83,36.5,26.72,38.94-2.33,52.32-7.64,80.08-33.17,20.32-18.68,53.83-48.34,70.33-68.86,34.36-42.7-3.92-96.29-56.19-88.7ZM730.46,623.28l-83.96,81.12c-11.43,7.99-32.61,6.01-46.09,9.7,1.69-13.33,2.92-27.94,7.33-40.43l84.79-81.92c22.34-17.79,56.56,4.27,37.93,31.52Z"/>
  </g>
</svg>