<?xml version="1.0" encoding="UTF-8"?>
<svg id="Layer_1" data-name="Layer 1" xmlns="http://www.w3.org/2000/svg" viewBox="0 0 1080 1080">
  <defs>
    <style>
      .cls-1 {
        fill: #fff;
      }
    </style>
  </defs>
  <rect x="204.57" y="204.57" width="670.87" height="670.87" rx="84.79" ry="84.79"/>
  <path class="cls-1" d="M596.45,601.42c-3,2.14-4.78,6.51-8.72,5.89l-82.2-46.76c4.5-13.09,3.35-27.95.55-41.25l80.62-46.18c4.56-1.81,6.99,3.56,10.56,6.08,63.87,45.02,139.28-25.57,100.19-90.55-35.2-58.51-127.12-31.36-127.14,36.53,0,5.3,4.41,18.46,1.26,21.91l-80.83,45.89c-11.01-9.69-21.18-16.91-35.96-20.03-57.52-12.13-103.19,48.85-74.37,100.54,19.76,35.45,66.98,46.22,100.17,22.21,2.76-2,7.62-8.9,10.4-8.88l80.59,46.14c3.15,3.45-1.25,16.61-1.25,21.91.02,60.23,74.41,91.44,117.47,48.89,58.2-57.5-17.27-155.19-91.32-102.34ZM630.41,387.49c55.48-9.35,62.28,67.45,17.25,75.09-54.67,9.27-61.06-67.7-17.25-75.09ZM467.78,567.08c-32.73,33.74-86.45-12.23-58.73-49.78,32.5-44.01,96.27,11.08,58.73,49.78ZM632.95,692.77c-41.55-5.51-41.33-68.72-2.54-75.3,61.69-10.46,62.02,83.18,2.54,75.3Z"/>
</svg>