<?xml version="1.0" encoding="UTF-8"?>
<svg id="Layer_1" data-name="Layer 1" xmlns="http://www.w3.org/2000/svg" viewBox="0 0 1080 1080">
  <path d="M332.69,205.62l414.11-.45c64.5,4.44,116.9,49.66,127.09,113.84,4.65,141.4.62,283.52,2.06,425.18-4.58,72.15-57.06,125.36-129.15,130.55l-409.95.08c-72.96-4.64-126.01-57.81-130.64-130.64,5.96-133.7-7.7-273.97,0-406.91,4.14-71.62,54.31-125.75,126.49-131.66ZM406.24,440.19c-43.86,2.24-40.87,71.77,7.21,65.21,38.92-5.31,33.18-67.27-7.21-65.21ZM672.17,440.15c-42.88,3.43-39.36,71.79,8.81,65.25,38.75-5.26,32.34-68.53-8.81-65.25ZM440.42,615.65c-22.01.46-31.66,26.54-16.51,42.27,21.07,21.88,75.64,38.31,105.45,40.05,37.36,2.17,102.09-12.24,128.89-40.05,15.28-15.85,5.05-42.73-17.57-42.27-11.81.24-17.28,8.62-26.58,13.75-48.79,26.95-98.47,26.24-147.02-.57-9.45-5.22-14.12-13.44-26.65-13.18Z"/>
</svg>