<?xml version="1.0" encoding="UTF-8"?>
<svg id="Layer_1" data-name="Layer 1" xmlns="http://www.w3.org/2000/svg" viewBox="0 0 1080 1080">
  <defs>
    <style>
      .cls-1 {
        fill: #fff;
      }
    </style>
  </defs>
  <rect x="217.3" y="213.37" width="670.87" height="670.87" rx="84.79" ry="84.79"/>
  <g>
    <path class="cls-1" d="M436.3,617.62c8.59-2.64,11.88-7.92,12.54-11.89-.66-5.29-3.72-7.43-4.72-17.04-1.17-11.19,8.18-37.96,10.96-42.74-.38-.91-.77-1.72-1.14-2.66-13.02-8.26-26.28-23.2-32.38-50.19-3.26-14.43-.56-29.18,7.24-41.76,0,0-8.83-61.62,3.61-101.86-11.62-5.59-24.27-4.65-41.61-2.92-13.31,1.33-15.2,4.16-25.42,2.68-11.71-1.7-21.22-5.26-24.08-6.69-1.65-.82-17.1,12.89-21.4,24.08-13.65,35.46-9.98,59.77-6.51,78.17-.12,1.88-.27,3.76-.27,5.66l3.17,13.47c.01.14,0,.27,0,.41-6.91,6.2-11.08,15.16-8.88,24.91,4.53,20.04,14.28,28.17,23.89,31.69,6.37,17.97,12.55,29.32,19.76,36.95,1.82,8.32,3.43,19.61,2.27,30.8-4.87,46.9-103.55,22.19-103.55,104.53,0,10.78,30.71,28.37,105.1,33.44-.22-1.59-.37-3.19-.37-4.83,0-73.83,48-93.82,81.76-104.21Z"/>
    <path class="cls-1" d="M752.13,588.69c-1.17-11.19.44-22.48,2.26-30.78,7.23-7.64,13.4-19,19.78-36.97,9.6-3.52,19.35-11.65,23.87-31.68,2.09-9.23-1.53-17.76-7.8-23.9,4.54-15.22,22.4-85.75-31.24-100.06-17.84-22.29-33.44-21.4-60.2-18.73-13.31,1.33-15.2,4.16-25.41,2.68-2.24-.33-4.36-.73-6.4-1.16,1.96,2.67,3.83,5.44,5.49,8.39,17.91,31.99,13.18,72.5,7.55,97.25,6.71,12.08,8.9,25.97,5.87,39.39-6.09,26.98-19.35,41.91-32.36,50.17-.65,1.64-2.57,4.99.07,8.29,2.41,3.91,2.84,3.54,5.48,6.32,1.82,8.32,3.43,19.61,2.26,30.8-.96,9.29-16.98,17.04-12.46,20.8,4.44,1.87,9.6,3.83,15.38,5.95,33.16,12.18,88.67,32.56,88.67,106.39,0,1.59-.14,3.15-.34,4.69,72.94-5.24,103.08-22.61,103.08-33.3,0-82.33-98.68-57.63-103.54-104.53Z"/>
    <path class="cls-1" d="M605.99,601.48c-1.34-12.88.51-25.88,2.6-35.45,8.32-8.78,15.44-21.86,22.77-42.56,11.05-4.06,22.28-13.41,27.49-36.48,2.4-10.62-1.77-20.44-8.98-27.52,5.22-17.53,25.78-98.73-35.97-115.2-20.54-25.67-38.5-24.64-69.31-21.56-15.33,1.53-17.5,4.79-29.27,3.08-13.49-1.96-24.43-6.06-27.72-7.7-1.9-.95-19.69,14.84-24.64,27.72-15.7,40.83-11.48,68.82-7.49,90-.13,2.17-.31,4.33-.31,6.52l3.66,15.51c.01.16,0,.31,0,.47-7.96,7.14-12.75,17.46-10.22,28.67,5.21,23.07,16.44,32.43,27.5,36.48,7.34,20.69,14.45,33.76,22.76,42.55,2.1,9.57,3.95,22.57,2.61,35.46-5.61,53.99-119.21,25.55-119.21,120.35,0,14.62,48.99,40.12,171.47,40.12s171.47-25.5,171.47-40.12c0-94.8-113.61-66.36-119.21-120.35ZM533.85,746.26l-31.09-126.3,38.25,15.92-2.06,18.48,6.08-.13-11.18,92.03ZM576.65,746.26l-11.18-92.03,6.08.13-2.06-18.48,38.25-15.92-31.09,126.3Z"/>
  </g>
</svg>