<?xml version="1.0" encoding="UTF-8"?>
<svg id="Layer_1" data-name="Layer 1" xmlns="http://www.w3.org/2000/svg" viewBox="0 0 1080 1080">
  <defs>
    <style>
      .cls-1 {
        fill: #fff;
      }
    </style>
  </defs>
  <rect x="204.52" y="211.27" width="670.87" height="670.87" rx="84.79" ry="84.79"/>
  <g>
    <path class="cls-1" d="M468.89,648.39c.58,7.81,1.59,16.41,9.37,20.26,13.34,6.61,26.01-2.88,26.2-17.38-2.77-49.75,3.73-103.52.08-152.79-.87-11.68-4.33-22.81-18.33-22.41-11.23.32-16.52,9.11-17.24,19.52,2.77,49.75-3.73,103.52-.08,152.79Z"/>
    <path class="cls-1" d="M575.45,648.39c.58,7.81,1.59,16.41,9.37,20.26,13.34,6.61,26.01-2.88,26.2-17.38-2.77-49.75,3.73-103.52.08-152.79-.87-11.68-4.33-22.81-18.33-22.41-11.23.32-16.52,9.11-17.24,19.52,2.77,49.75-3.73,103.52-.08,152.79Z"/>
    <path class="cls-1" d="M447.51,350.98c59.21-4.31,126.75,5.83,184.97,0,26.24-2.63,26.21-32.92,0-35.56-58.84-5.93-127.7,4.08-187.56.37-23.91,2.98-21.67,34.7,2.59,35.19Z"/>
    <path class="cls-1" d="M750.89,368.8l-418.91-.08c-16.73-1.75-29.23,15.04-18.47,29.01,2.05,2.66,9.65,6.64,12.61,6.64h36.26v334.41c0,20.3,22.23,39.69,42.2,39.28,87.73-4.24,180.84,5.72,267.94.09,21.32-1.38,45.07-15.07,45.07-39.37v-334.41h36.26c2.96,0,10.57-3.98,12.61-6.64,9.78-12.71.09-29.21-15.59-28.93ZM682.08,740.27c0,.16-2.06,2.22-2.22,2.22h-279.73c-.16,0-2.22-2.07-2.22-2.22v-335.89h284.17v335.89Z"/>
  </g>
</svg>