<?xml version="1.0" encoding="UTF-8"?>
<svg id="Layer_1" data-name="Layer 1" xmlns="http://www.w3.org/2000/svg" viewBox="0 0 1080 1080">
  <defs>
    <style>
      .cls-1 {
        fill: #fff;
      }
    </style>
  </defs>
  <rect x="204.57" y="204.57" width="670.87" height="670.87" rx="84.79" ry="84.79"/>
  <g>
    <path class="cls-1" d="M493.21,350.51c101.36-3.35,205.17,72.46,188.18,182.39-18.74,121.28-177.33,169.95-276.73,114.15l-57.67,15.54c-8,2.67-4.93-8.78-4.41-13.74,1.61-15.22,5.13-30.34,8.36-45.25-40.66-48.91-45.72-117.16-11.34-171.06,32.88-51.56,93.33-80.03,153.62-82.02ZM411.31,491.24c-25.5,1.39-22.41,40.27,2.66,37.91,24.14-2.27,20.88-39.19-2.66-37.91ZM498.96,491.24c-24.86,1.35-22.79,39.92,2.65,37.9,23.85-1.89,21.57-39.22-2.65-37.9ZM586.62,491.24c-23.93,1.28-23.04,38.83,1.94,37.96,24.8-.86,23.1-39.3-1.94-37.96Z"/>
    <path class="cls-1" d="M746.97,725.25l-39.91-10.71c-43.28,22.89-99.02,19.67-138.5-9.53-11.08-8.19-21.76-19.09-27.79-31.47,71.4-13.1,137.24-67.25,148.01-141.51,12.17,3,24.38,10.05,34.41,17.68,38.88,29.59,52.43,80.65,27.24,124.05-1.77,3.05-9.12,12.17-9.26,14.5,2.53,12.22,5.19,24.47,5.8,37Z"/>
  </g>
</svg>