<?xml version="1.0" encoding="utf-8"?>

<!-- Uploaded to: SVG Repo, www.svgrepo.com, Generator: SVG Repo Mixer Tools -->
<svg fill="#000000" height="800px" width="800px" version="1.1" id="Icons" xmlns="http://www.w3.org/2000/svg" xmlns:xlink="http://www.w3.org/1999/xlink" 
	 viewBox="0 0 32 32" xml:space="preserve">
<g>
	<path d="M12,16c-0.4,0-0.7-0.2-0.9-0.5l-6-10C4.9,5.1,5,4.6,5.3,4.3C5.6,4,6.1,3.9,6.5,4.1l10,6c0.3,0.2,0.5,0.5,0.5,0.9
		C17,13.8,14.8,16,12,16z"/>
</g>
<path d="M25.8,24.5c-3.1,3-7.2,4.7-11.5,4.7c-0.8,0-1.5-0.1-2.2-0.2c0,0.3-0.1,0.7-0.1,1c0,0.6,0.4,1,1,1h14c0.6,0,1-0.4,1-1
	C28,27.9,27.2,25.9,25.8,24.5z"/>
<path d="M24.5,2.4C22-0.1,16,1.9,10.3,7.3c-0.4,0.4-0.4,1,0,1.4c0.4,0.4,1,0.4,1.4,0c5-4.7,10-6.4,11.4-4.9c1.5,1.5-0.5,7-5.6,12.1
	C12.5,21,7,23,5.5,21.5c-1.3-1.3-0.1-5.8,4.3-10.8c0.4-0.4,0.3-1-0.1-1.4C9.3,8.9,8.6,9,8.3,9.4c-4.9,5.5-6.7,11.1-4.2,13.5
	c2.7,2.7,6.4,4.2,10.2,4.2s7.5-1.5,10.2-4.2C30.2,17.2,30.2,8.1,24.5,2.4z"/>
</svg>