<?xml version="1.0" encoding="UTF-8"?>
<!DOCTYPE svg PUBLIC "-//W3C//DTD SVG 1.1//EN" "http://www.w3.org/Graphics/SVG/1.1/DTD/svg11.dtd">
<!-- Creator: CorelDRAW -->
<svg xmlns="http://www.w3.org/2000/svg" xml:space="preserve" width="2048px" height="2048px" style="shape-rendering:geometricPrecision; text-rendering:geometricPrecision; image-rendering:optimizeQuality; fill-rule:evenodd; clip-rule:evenodd"
viewBox="0 0 2048 2048"
 xmlns:xlink="http://www.w3.org/1999/xlink">
 <defs>
  <style type="text/css">
   <![CDATA[
    .fil3 {fill:none}
    .fil1 {fill:#424242}
    .fil2 {fill:#5D4037}
    .fil0 {fill:#FFD54F}
   ]]>
  </style>
 </defs>
 <g id="Layer_x0020_1">
  <metadata id="CorelCorpID_0Corel-Layer"/>
  <path class="fil0" d="M1024 255.999c424.155,0 768.001,343.845 768.001,768.001 0,424.155 -343.845,768.001 -768.001,768.001 -424.155,0 -768.001,-343.845 -768.001,-768.001 0,-424.155 343.845,-768.001 768.001,-768.001z"/>
  <path class="fil1" d="M1103.2 1280.8c-20.2666,-20.2654 -48.2681,-32.8004 -79.1989,-32.8004 -30.9307,0 -58.9335,12.5362 -79.1977,32.8004 -20.2642,20.2642 -32.8004,48.267 -32.8004,79.1977 0,30.9307 12.535,58.9323 32.8004,79.1989 20.2642,20.2642 48.267,32.8004 79.1977,32.8004 30.9319,0 58.9347,-12.5362 79.1989,-32.8004 20.2642,-20.2642 32.8004,-48.267 32.8004,-79.1989 0,-30.9307 -12.5362,-58.9335 -32.8004,-79.1977z"/>
  <path class="fil2" d="M1024 1149.99c97.1954,0 176.001,78.8044 176.001,176 0,97.1965 -78.8044,176.001 -176.001,176.001 -97.1954,0 -176,-78.8056 -176,-176.001 0,-97.1942 78.8056,-176 176,-176z"/>
  <g id="_395334048">
   <polygon id="_395334264" class="fil2" points="623.311,786.068 683.565,753.369 623.311,720.671 657.567,657.494 758.903,712.485 860.238,657.494 894.494,720.671 834.24,753.369 894.494,786.068 860.238,849.245 758.903,794.253 657.567,849.245 "/>
   <polygon id="_395334096" class="fil2" points="1153.51,786.068 1213.76,753.369 1153.51,720.671 1187.76,657.494 1289.1,712.485 1390.43,657.494 1424.69,720.671 1364.44,753.369 1424.69,786.068 1390.43,849.245 1289.1,794.253 1187.76,849.245 "/>
  </g>
  <rect class="fil3" width="2048" height="2048"/>
  <rect class="fil3" x="255.999" y="255.999" width="1536" height="1536"/>
 </g>
</svg>
