<?xml version="1.0" encoding="UTF-8"?>
<!DOCTYPE svg PUBLIC "-//W3C//DTD SVG 1.1//EN" "http://www.w3.org/Graphics/SVG/1.1/DTD/svg11.dtd">
<!-- Creator: CorelDRAW -->
<svg xmlns="http://www.w3.org/2000/svg" xml:space="preserve" width="2048px" height="2048px" style="shape-rendering:geometricPrecision; text-rendering:geometricPrecision; image-rendering:optimizeQuality; fill-rule:evenodd; clip-rule:evenodd"
viewBox="0 0 2048 2048"
 xmlns:xlink="http://www.w3.org/1999/xlink">
 <defs>
  <style type="text/css">
   <![CDATA[
    .fil2 {fill:none}
    .fil3 {fill:#5D4037}
    .fil0 {fill:#FFD54F}
    .fil1 {fill:white}
   ]]>
  </style>
 </defs>
 <g id="Layer_x0020_1">
  <metadata id="CorelCorpID_0Corel-Layer"/>
  <path class="fil0" d="M1024 255.999c424.155,0 768.001,343.845 768.001,768.001 0,424.155 -343.845,768.001 -768.001,768.001 -424.155,0 -768.001,-343.845 -768.001,-768.001 0,-424.155 343.845,-768.001 768.001,-768.001z"/>
  <path class="fil1" d="M1707.18 1375.15c-8.40355,16.3158 -17.3658,32.2949 -26.8772,47.9044l-368.306 -28.1906 3.7937 -49.6713 391.389 29.9575zm-1337.63 50.8831c-9.60355,-15.6012 -18.6591,-31.5709 -27.1524,-47.8831l430.585 -32.9575 3.79488 49.6701 -407.228 31.1705z"/>
  <path class="fil1" d="M1765.06 821.842c4.69961,17.2713 8.82166,34.7788 12.3248,52.5107l-458.104 329.861 -29.1024 -40.4292 474.881 -341.942zm-1494.44 52.5095c3.50315,-17.7319 7.62402,-35.2394 12.3236,-52.5107l474.883 341.944 -29.1024 40.4292 -458.104 -329.862z"/>
  <rect class="fil2" width="2048" height="2048"/>
  <rect class="fil2" x="255.999" y="255.999" width="1536" height="1536"/>
  <g id="_395088120">
   <path id="_452690088" class="fil3" d="M1285.6 703.999c44.1839,0 80.0008,35.817 80.0008,80.0008 0,44.1839 -35.817,80.0008 -80.0008,80.0008 -44.1839,0 -80.0008,-35.817 -80.0008,-80.0008 0,-44.1839 35.817,-80.0008 80.0008,-80.0008z"/>
   <path id="_395088048" class="fil3" d="M762.403 703.999c44.1839,0 80.0008,35.817 80.0008,80.0008 0,44.1839 -35.817,80.0008 -80.0008,80.0008 -44.1839,0 -80.0008,-35.817 -80.0008,-80.0008 0,-44.1839 35.817,-80.0008 80.0008,-80.0008z"/>
  </g>
  <path class="fil1" d="M740.999 1104.01l566.001 0c11.0008,0 19.9996,9.00119 19.9996,19.9996l0 327.991c0,10.9984 -9.00119,19.9996 -19.9996,19.9996l-566.001 0c-10.9984,0 -19.9996,-8.99883 -19.9996,-19.9996l0 -327.991c0,-11.0008 8.99883,-19.9996 19.9996,-19.9996z"/>
 </g>
</svg>
