<?xml version="1.0" encoding="UTF-8"?>
<svg id="Layer_1" data-name="Layer 1" xmlns="http://www.w3.org/2000/svg" viewBox="0 0 1080 1080">
  <path d="M431.65,321.03c-8.53,154.18,6.63,316.14,0,471.13-.43,102.34,140.8,114.47,155.72,13.41l-.24-484.01c-6.4-36.22-50.93-52.39-78.15-25.95-4.32,4.2-13.89,19.94-13.89,25.5v446.13h29.11v-437.57c0-6.44,5.97-15.08,12.96-16.18,17.33-2.71,20.32,8.55,21.38,22.95l-.1,459.02c-1.44,60.69-82.64,69.72-95.73,10.16l.06-496.3c7.05-70.48,94.32-102.84,140.19-46.41,5.97,7.35,17.16,28.56,17.16,37.64v559.16h30.83l.08-542.12c-7.15-150.32-210.76-152.25-219.38,3.42Z"/>
</svg>