<?xml version="1.0" encoding="UTF-8"?>
<svg id="Layer_1" data-name="Layer 1" xmlns="http://www.w3.org/2000/svg" viewBox="0 0 1080 1080">
  <defs>
    <style>
      .cls-1 {
        fill: #fff;
      }
    </style>
  </defs>
  <rect x="206.58" y="204.57" width="670.87" height="670.87" rx="84.79" ry="84.79"/>
  <g>
    <path class="cls-1" d="M641.05,392l-300.8,300.43c-4.74,15.92-30.5,55.33-29.29,69.71.59,6.93,7.24,9.86,13.49,8.58l64.49-29.59,300.59-300.65-.81-4.09-47.67-44.39Z"/>
    <polygon class="cls-1" points="661.11 371.63 710.28 419.31 727.49 402.42 678.32 354.73 661.11 371.63"/>
    <path class="cls-1" d="M730.33,309.64c-12.04,2.07-24.83,16.7-31.87,26.12l49.08,46.28c9.95-9.96,23.16-17.98,25.19-33.23,3.42-25.74-17.35-43.49-42.4-39.17Z"/>
  </g>
</svg>