<?xml version="1.0" encoding="UTF-8"?>
<svg id="Layer_1" data-name="Layer 1" xmlns="http://www.w3.org/2000/svg" viewBox="0 0 1080 1080">
  <defs>
    <style>
      .cls-1 {
        fill: #fff;
      }
    </style>
  </defs>
  <rect x="204.57" y="204.57" width="670.87" height="670.87" rx="84.79" ry="84.79"/>
  <g>
    <path class="cls-1" d="M737.42,451.16v273.53c0,14.24-15.55,29.78-29.82,30.27l-336-.03c-12.78-.52-29.01-15.72-29.01-28.58v-275.2h394.84ZM465.71,585.52v21.7c11.39-.02,32.99.19,35.71,14.58,3.23,17.13-11.64,22.15-25.89,20.88-9.43-.84-18.84-7.19-25.67-13.35l-13.75,19.35c16.22,19.21,47.91,23.47,70.62,14.77,31.49-12.05,36.75-51.94,4.06-66.03-.76-.33-4.95-1.44-5.02-1.7-.06-.21-.04-1.26.08-1.39.16-.19,3.63-1.41,4.55-1.92,26.31-14.69,23.1-48.79-3.78-60.08-18.76-7.88-40.49-5.25-57.38,5.61-1.49.96-8.98,6.03-8.98,7.31l14.85,18.15c4.85-3.44,9.3-7.54,15-9.61,10.5-3.81,25.89-2.55,27.3,11.12,1.89,18.46-18.03,20.25-31.67,20.6ZM618.88,530.44h-23.16c-.21,0-2.81,1.93-3.54,2.3-9.41,4.77-19.08,8.39-29.64,9.8v19.19h25.46v78.45h-29.63v25.04h85.56v-25.04h-25.04v-109.75Z"/>
    <path class="cls-1" d="M402.68,347.67h5.84v-14.4c0-.19,1.15-1.74,1.43-1.91,1.47-.89,5.25-.32,5.25,1.49v14.81h48v-14.81c0-.12,1.48-1.57,1.68-1.66,1.72-.73,5,.23,5,2.08v14.4h5.84v-14.4c0-1.82,3.3-2.85,5-2.08.38.17,1.67,1.82,1.67,2.08v14.4h48v-14.81c0-2.47,6.68-2.84,6.68.83v13.98h5.84v-14.81c0-1.8,3.77-2.37,5.25-1.49.28.17,1.43,1.72,1.43,1.91v14.4h48v-14.81c0-2.61,6.26-2.13,6.26-.42v15.23h6.26v-14.81c0-1.78,4.51-2.88,5.86-.85.18.27.82,1.91.82,2.1v13.56h47.58v-13.98c0-3.68,6.68-3.31,6.68-.83v14.81h6.26v-15.23c0-1.71,6.26-2.19,6.26.42v14.81h25.25c12.94,0,28.59,17.06,28.59,29.84v61.55h-394.84v-63.22c0-12.01,16.59-28.17,28.59-28.17h24.83v-14.4c0-1.85,3.28-2.81,5-2.08.2.09,1.68,1.54,1.68,1.66v14.81ZM415.2,372.29v12.31c0,1.94-4.7,3.62-6.17.74s.34-15.76-.9-16.63c-.49-.34-4.99-.57-5.39.5-.51,4.63.48,10.03-.05,14.56-.57,4.9-6.69,3.07-6.69.83v-12.31c-12.5,10.28-1.9,30.25,13.68,25.99,11.75-3.22,15.26-18.63,5.52-25.99ZM482.4,372.29v12.31c0,2.24-6.12,4.07-6.69-.83-.53-4.52.46-9.93-.05-14.56-.41-1.08-4.91-.84-5.39-.5-.88.61-.17,12.46-.37,14.65-.51,5.59-6.7,3.39-6.7,1.23v-12.31c-9.15,6.72-6.36,21.55,3.96,25.46,16.13,6.11,28.44-14.61,15.24-25.46ZM549.6,372.29v11.89c0,3.01-6.13,4.35-6.69-.41-.53-4.52.46-9.93-.05-14.56-.41-1.08-4.91-.84-5.39-.5-1.13.79.35,13.45-.85,16.26-1.54,3.62-6.22,1.17-6.22.04v-12.73c-1.25.1-2.44,1.95-3.09,2.96-8.61,13.23,5.74,29.02,19.74,21.82,9.35-4.8,10.89-18.25,2.55-24.78ZM597.6,385.02c-.83-2.95.62-9.75,0-13.14-14.79,12.03,1.5,34.7,17.66,24.55,8.37-5.26,9.5-17.94,1.53-24.13v11.89c0,.1-.82,1.59-.97,1.75-1.77,1.92-5.39.91-5.73-1.73-.6-4.54.54-10.3-.04-14.99-.44-1.09-5.33-.84-5.81-.5-1.24.86.43,14.24-.67,16.83-.84,1.99-5.43,1.45-5.98-.53ZM664.38,383.77c-.55-3.33.4-7.99,0-11.48-7.99,6.18-6.84,18.87,1.53,24.13,16.13,10.13,32.48-12.51,17.66-24.55v13.14c0,1.35-4.94,3.06-5.98.53s.56-15.97-.67-16.83c-.48-.33-5.37-.59-5.81.5-.58,4.69.56,10.44-.04,14.99-.46,3.5-5.98,3.91-6.7-.44Z"/>
  </g>
</svg>