<?xml version="1.0" encoding="UTF-8"?>
<svg id="Layer_1" data-name="Layer 1" xmlns="http://www.w3.org/2000/svg" viewBox="0 0 1080 1080">
  <defs>
    <style>
      .cls-1 {
        fill: #fff;
      }
    </style>
  </defs>
  <rect x="204.57" y="204.57" width="670.87" height="670.87" rx="84.79" ry="84.79"/>
  <path class="cls-1" d="M716.04,491.62h-127.66v-127.66c0-13.23-10.73-23.96-23.96-23.96h-48.86c-13.23,0-23.96,10.73-23.96,23.96v127.66h-127.66c-13.23,0-23.96,10.73-23.96,23.96v48.86c0,13.23,10.73,23.96,23.96,23.96h127.66v127.66c0,13.23,10.73,23.96,23.96,23.96h48.86c13.23,0,23.96-10.73,23.96-23.96v-127.66h127.66c13.23,0,23.96-10.73,23.96-23.96v-48.86c0-13.23-10.73-23.96-23.96-23.96Z"/>
</svg>